# xmcd
#
# Track frame offsets:
#   150
#   12533
#   22484
#   33591
#   43305
#   55529
#   68807
#   79707
#   90851
#   101033
#   111778
#   124317
#
# Disc length: 1794 seconds
#
# Revision: 0
# Processed by: cddbd v1.4PL0 Copyright (c) Steve Scherf et al.
# Submitted via: uFREEDB 1.6.0
#
DISCID=a007000c
DTITLE=Martin, Dean - Houston
DYEAR=1965
DGENRE=Country
TTITLE0=Houston
TTITLE1=The First Thing Every Morning
TTITLE2=Hammer And Nails
TTITLE3=Little Lovely One
TTITLE4=Love, Love, Love
TTITLE5=Down Home
TTITLE6=I Will
TTITLE7=Snap Your Fingers
TTITLE8=Everybody But Me
TTITLE9=Old Yellow Line
TTITLE10=Detour
TTITLE11=You're The Reason I'm In Love
EXTD=
EXTT0=
EXTT1=
EXTT2=
EXTT3=
EXTT4=
EXTT5=
EXTT6=
EXTT7=
EXTT8=
EXTT9=
EXTT10=
EXTT11=
PLAYORDER=
